<svg width="264" height="66" viewBox="0 0 448 86" fill="none" xmlns="http://www.w3.org/2000/svg">
<path d="M124.508 70L130.907 31.4545H157.219L155.939 39.0206H138.944L137.664 46.9254H152.984L151.705 54.5103H136.384L133.825 70H124.508Z" fill="white"/>
<path d="M151.232 70L156.05 41.0909H164.99L164.105 46.3608H164.406C165.247 44.4536 166.345 43.0357 167.7 42.1072C169.055 41.1662 170.523 40.6957 172.104 40.6957C172.531 40.6957 172.958 40.727 173.384 40.7898C173.823 40.8399 174.237 40.9152 174.626 41.0156L173.271 49.0334C172.845 48.8703 172.286 48.7511 171.596 48.6758C170.906 48.5879 170.279 48.544 169.714 48.544C168.622 48.544 167.606 48.7887 166.665 49.278C165.737 49.7548 164.946 50.4261 164.294 51.2919C163.654 52.1451 163.233 53.1489 163.033 54.3033L160.435 70H151.232Z" fill="white"/>
<path d="M169.829 70L174.648 41.0909H183.851L179.033 70H169.829ZM179.899 37.7031C178.594 37.7031 177.533 37.2702 176.718 36.4045C175.902 35.5387 175.582 34.5035 175.758 33.299C175.934 32.0819 176.548 31.0467 177.602 30.1935C178.656 29.3403 179.83 28.9137 181.122 28.9137C182.427 28.9137 183.475 29.3403 184.265 30.1935C185.068 31.0467 185.382 32.0819 185.206 33.299C185.056 34.5035 184.453 35.5387 183.399 36.4045C182.358 37.2702 181.191 37.7031 179.899 37.7031Z" fill="white"/>
<path d="M194.619 70.5458C191.595 70.5458 189.086 69.9498 187.091 68.7578C185.108 67.5533 183.715 65.8405 182.912 63.6197C182.109 61.3862 181.965 58.7325 182.48 55.6584C182.981 52.6721 184.004 50.0623 185.547 47.8288C187.103 45.5828 189.061 43.8388 191.42 42.5966C193.778 41.3418 196.407 40.7145 199.306 40.7145C201.363 40.7145 203.189 41.0344 204.782 41.6743C206.376 42.3143 207.693 43.2679 208.735 44.5351C209.776 45.7899 210.485 47.3332 210.862 49.1651C211.238 50.997 211.226 53.0987 210.824 55.4702L210.466 57.7663H185.359L186.206 52.4212H202.769C202.919 51.4425 202.838 50.5704 202.524 49.805C202.21 49.0396 201.702 48.4436 200.999 48.017C200.309 47.5779 199.462 47.3583 198.459 47.3583C197.442 47.3583 196.489 47.5967 195.598 48.0735C194.72 48.5377 193.973 49.1651 193.358 49.9556C192.743 50.7461 192.342 51.6369 192.154 52.6282L191.156 58.1051C190.955 59.3222 191.012 60.3636 191.325 61.2294C191.639 62.0952 192.179 62.7602 192.944 63.2244C193.709 63.6761 194.694 63.902 195.899 63.902C196.702 63.902 197.455 63.7953 198.157 63.582C198.86 63.3562 199.487 63.0237 200.04 62.5845C200.604 62.1328 201.062 61.587 201.414 60.9471L209.808 61.1917C209.13 63.0864 208.082 64.7364 206.665 66.1417C205.247 67.5344 203.515 68.6198 201.47 69.3977C199.437 70.1631 197.154 70.5458 194.619 70.5458Z" fill="white"/>
<path d="M221.413 53.5128L218.665 70H209.462L214.28 41.0909H223.032L222.166 46.3984H222.486C223.39 44.6292 224.701 43.2428 226.42 42.239C228.139 41.2226 230.071 40.7145 232.217 40.7145C234.237 40.7145 235.924 41.1662 237.279 42.0696C238.635 42.973 239.594 44.2403 240.159 45.8714C240.724 47.49 240.818 49.391 240.441 51.5742L237.355 70H228.151L230.918 53.381C231.194 51.7875 230.999 50.5391 230.334 49.6356C229.682 48.7197 228.615 48.2617 227.135 48.2617C226.169 48.2617 225.284 48.475 224.481 48.9016C223.691 49.3157 223.026 49.9117 222.486 50.6896C221.959 51.4676 221.602 52.4086 221.413 53.5128Z" fill="white"/>
<path d="M249.807 70.4141C247.674 70.4141 245.823 69.862 244.255 68.7578C242.687 67.6536 241.564 65.9974 240.886 63.7891C240.221 61.5807 240.158 58.8391 240.698 55.5643C241.263 52.1639 242.266 49.3659 243.709 47.1701C245.152 44.9743 246.834 43.3494 248.753 42.2954C250.686 41.2415 252.656 40.7145 254.663 40.7145C256.181 40.7145 257.436 40.978 258.427 41.505C259.431 42.0194 260.215 42.6844 260.78 43.5C261.345 44.3156 261.734 45.1625 261.947 46.0408H262.154L264.582 31.4545H273.785L267.386 70H258.277L259.048 65.3136H258.766C258.227 66.2044 257.536 67.0388 256.696 67.8167C255.855 68.5947 254.858 69.2221 253.703 69.6989C252.561 70.1757 251.263 70.4141 249.807 70.4141ZM254.155 63.2432C255.272 63.2432 256.282 62.9296 257.185 62.3022C258.089 61.6623 258.848 60.7651 259.462 59.6108C260.09 58.4564 260.529 57.1013 260.78 55.5454C261.043 53.9645 261.056 52.6031 260.818 51.4613C260.579 50.3195 260.109 49.4412 259.406 48.8263C258.716 48.2115 257.806 47.9041 256.677 47.9041C255.548 47.9041 254.538 48.2178 253.647 48.8452C252.756 49.4725 252.016 50.3571 251.426 51.4989C250.836 52.6407 250.41 53.9896 250.146 55.5454C249.895 57.1013 249.87 58.4564 250.071 59.6108C250.284 60.7651 250.729 61.6623 251.407 62.3022C252.097 62.9296 253.013 63.2432 254.155 63.2432Z" fill="white"/>
<path d="M298.043 49.918L289.743 50.1438C289.756 49.529 289.618 48.9895 289.329 48.5252C289.041 48.0484 288.633 47.6783 288.106 47.4148C287.579 47.1513 286.951 47.0195 286.224 47.0195C285.044 47.0195 283.984 47.283 283.043 47.81C282.114 48.337 281.594 49.0208 281.481 49.8615C281.393 50.3132 281.518 50.7084 281.857 51.0472C282.196 51.3734 282.949 51.662 284.116 51.913L289.536 52.967C292.322 53.519 294.342 54.4789 295.597 55.8466C296.864 57.2017 297.316 58.996 296.952 61.2294C296.625 63.1366 295.785 64.7866 294.43 66.1793C293.087 67.5721 291.374 68.6511 289.292 69.4165C287.221 70.1694 284.931 70.5458 282.422 70.5458C278.181 70.5458 274.981 69.6926 272.823 67.9861C270.678 66.2672 269.674 63.9898 269.812 61.1541L278.771 60.9283C278.808 61.9948 279.166 62.7978 279.843 63.3373C280.533 63.8643 281.468 64.1404 282.648 64.1655C283.94 64.1906 285.057 63.9208 285.998 63.3562C286.939 62.7915 287.466 62.0952 287.579 61.267C287.654 60.7275 287.472 60.3072 287.033 60.006C286.606 59.7049 285.81 59.4351 284.643 59.1967L279.749 58.2368C276.939 57.6973 274.906 56.681 273.651 55.1878C272.409 53.6822 271.982 51.7624 272.371 49.4286C272.698 47.5716 273.463 45.9969 274.668 44.7045C275.885 43.3996 277.472 42.4084 279.429 41.7308C281.399 41.0533 283.645 40.7145 286.167 40.7145C290.207 40.7145 293.256 41.5363 295.314 43.18C297.385 44.8112 298.294 47.0572 298.043 49.918Z" fill="white"/>
<path d="M307.84 39.0206L309.12 31.4545H341.699L340.419 39.0206H328.731L323.612 70H314.427L319.546 39.0206H307.84Z" fill="white"/>
<path d="M333.138 70L337.956 41.0909H346.896L346.011 46.3608H346.312C347.153 44.4536 348.251 43.0357 349.606 42.1072C350.961 41.1662 352.429 40.6957 354.01 40.6957C354.437 40.6957 354.863 40.727 355.29 40.7898C355.729 40.8399 356.143 40.9152 356.532 41.0156L355.177 49.0334C354.751 48.8703 354.192 48.7511 353.502 48.6758C352.812 48.5879 352.185 48.544 351.62 48.544C350.528 48.544 349.512 48.7887 348.571 49.278C347.642 49.7548 346.852 50.4261 346.199 51.2919C345.56 52.1451 345.139 53.1489 344.938 54.3033L342.341 70H333.138Z" fill="white"/>
<path d="M358.723 70.4893C356.891 70.4893 355.31 70.1819 353.98 69.5671C352.662 68.9397 351.696 67.9924 351.081 66.7251C350.479 65.4579 350.335 63.8769 350.648 61.9822C350.924 60.3762 351.433 59.0273 352.173 57.9357C352.926 56.8315 353.848 55.9344 354.94 55.2443C356.044 54.5542 357.273 54.0272 358.629 53.6633C359.984 53.2995 361.401 53.0548 362.882 52.9293C364.538 52.7788 365.881 52.6156 366.91 52.44C367.951 52.2643 368.729 52.0196 369.244 51.706C369.758 51.3797 370.072 50.928 370.185 50.3508V50.2567C370.335 49.2906 370.128 48.544 369.564 48.017C368.999 47.49 368.152 47.2266 367.023 47.2266C365.818 47.2266 364.789 47.49 363.936 48.017C363.083 48.544 362.487 49.2718 362.148 50.2003L353.716 49.8991C354.243 48.1425 355.147 46.5741 356.426 45.1939C357.706 43.8011 359.331 42.7095 361.301 41.919C363.284 41.116 365.573 40.7145 368.171 40.7145C370.003 40.7145 371.659 40.9341 373.14 41.3732C374.62 41.7998 375.869 42.4272 376.885 43.2553C377.914 44.0709 378.648 45.0747 379.087 46.2667C379.526 47.4587 379.62 48.8201 379.369 50.3508L376.076 70H367.418L368.095 65.9723H367.87C367.192 66.951 366.395 67.7791 365.479 68.4567C364.576 69.1342 363.56 69.6424 362.43 69.9812C361.301 70.3199 360.065 70.4893 358.723 70.4893ZM362.6 64.4666C363.566 64.4666 364.482 64.2659 365.348 63.8643C366.213 63.4628 366.941 62.9107 367.531 62.2081C368.133 61.4929 368.516 60.6648 368.679 59.7237L369.112 56.9758C368.848 57.1139 368.516 57.2393 368.114 57.3523C367.713 57.4652 367.286 57.5718 366.834 57.6722C366.383 57.76 365.919 57.8479 365.442 57.9357C364.977 58.011 364.532 58.08 364.105 58.1427C363.202 58.2808 362.418 58.4941 361.753 58.7827C361.088 59.0712 360.555 59.4477 360.153 59.9119C359.764 60.3636 359.526 60.9032 359.438 61.5305C359.287 62.4716 359.507 63.1993 360.097 63.7138C360.686 64.2157 361.521 64.4666 362.6 64.4666Z" fill="white"/>
<path d="M409.819 41.0909L395.083 70H384.543L379.461 41.0909H388.815L390.848 61.0035H391.149L399.788 41.0909H409.819Z" fill="white"/>
<path d="M417.327 70.5458C414.303 70.5458 411.793 69.9498 409.798 68.7578C407.816 67.5533 406.423 65.8405 405.62 63.6197C404.817 61.3862 404.673 58.7325 405.187 55.6584C405.689 52.6721 406.712 50.0623 408.255 47.8288C409.811 45.5828 411.768 43.8388 414.127 42.5966C416.486 41.3418 419.115 40.7145 422.013 40.7145C424.071 40.7145 425.897 41.0344 427.49 41.6743C429.084 42.3143 430.401 43.2679 431.443 44.5351C432.484 45.7899 433.193 47.3332 433.569 49.1651C433.946 50.997 433.933 53.0987 433.532 55.4702L433.174 57.7663H408.067L408.914 52.4212H425.476C425.627 51.4425 425.545 50.5704 425.232 49.805C424.918 49.0396 424.41 48.4436 423.707 48.017C423.017 47.5779 422.17 47.3583 421.166 47.3583C420.15 47.3583 419.196 47.5967 418.305 48.0735C417.427 48.5377 416.681 49.1651 416.066 49.9556C415.451 50.7461 415.049 51.6369 414.861 52.6282L413.864 58.1051C413.663 59.3222 413.719 60.3636 414.033 61.2294C414.347 62.0952 414.886 62.7602 415.652 63.2244C416.417 63.6761 417.402 63.902 418.607 63.902C419.41 63.902 420.163 63.7953 420.865 63.582C421.568 63.3562 422.195 63.0237 422.747 62.5845C423.312 62.1328 423.77 61.587 424.121 60.9471L432.515 61.1917C431.838 63.0864 430.79 64.7364 429.372 66.1417C427.954 67.5344 426.223 68.6198 424.178 69.3977C422.145 70.1631 419.861 70.5458 417.327 70.5458Z" fill="white"/>
<path d="M447.716 31.4545L441.317 70H432.113L438.512 31.4545H447.716Z" fill="white"/>
<path d="M96.9331 46.4587C96.9331 44.4345 96.7173 42.4342 96.279 40.4576C96.2586 40.2329 96.2569 40.0065 96.2144 39.7852C94.8959 32.8155 92.1791 26.4382 88.0945 20.65C85.8024 17.4052 83.1994 14.4362 80.1257 11.9047C79.9236 11.7106 79.7316 11.5046 79.5175 11.3276C71.0102 4.3 61.2591 0.501908 50.2338 0.0439574C47.1533 -0.0837239 44.0797 0.0524695 41.04 0.641506C40.7869 0.661935 40.5303 0.661935 40.2822 0.7079C33.7917 1.93534 27.6937 4.18594 22.1836 7.88019C10.3834 15.7896 3.08248 26.7345 0.686769 40.7641C-0.927361 50.2176 0.31297 59.3885 4.31092 68.1662C13.3772 88.0709 35.1425 101.21 58.7173 95.7624C77.6179 91.394 89.7783 79.3613 95.3903 60.7624C96.7938 56.1114 97.1727 51.3089 96.9331 46.4587ZM91.8477 59.7409C86.7114 76.3089 76.07 87.6265 59.1641 91.7498C40.3247 96.3429 24.7407 90.1785 12.8097 74.9861C6.62677 67.1141 3.50215 58.0198 3.68565 47.9619C3.91503 35.4577 8.7863 24.8959 17.7201 16.2544C23.7722 10.3998 30.9696 6.54549 39.2152 4.7239C39.3222 4.70007 39.4208 4.64219 39.5244 4.59963C39.572 4.64389 39.6213 4.67794 39.6723 4.70347C39.7181 4.64559 39.7674 4.59622 39.8201 4.55877C41.8488 4.28298 43.869 3.92887 45.9181 3.81822C57.5721 3.19854 67.8618 6.70552 76.8907 14.0634C79.8012 16.4348 82.3889 19.1451 84.5638 22.1686C89.0459 28.4062 92.1196 35.2738 93.0609 42.9977C93.4007 45.776 93.4449 48.5561 93.3633 51.3446H93.3582C93.3582 51.3446 93.3429 51.3531 93.3344 51.3599C93.3429 51.3718 93.3514 51.3838 93.3616 51.394C93.0541 54.2132 92.6905 57.0256 91.8477 59.7409Z" fill="white"/>
<path d="M86.1847 47.9687C73.8306 35.6875 61.4698 23.413 49.1277 11.1199C48.6519 10.6466 48.4174 10.5649 47.8907 11.0926C38.8635 20.1308 29.8125 29.1451 20.7648 38.1645C17.4975 41.4212 14.2251 44.6745 10.9543 47.9296C10.5652 48.1764 10.2458 48.4335 10.815 48.8284C11.3162 49.3068 11.8175 49.7835 12.3187 50.2619C12.5464 50.5104 12.7639 50.7692 13.0017 51.0075C24.5929 62.5601 36.1925 74.1076 47.7684 85.679C48.3393 86.2493 48.6145 86.3633 49.2551 85.7198C55.8849 79.0566 62.5606 72.4376 69.2159 65.7981C71.96 63.0607 74.6819 60.3027 77.414 57.5533C80.401 54.6167 83.3829 51.6749 86.3801 48.7501C86.8202 48.3194 86.3903 48.1747 86.1847 47.9687ZM50.3527 78.7586V70.9377C50.3493 68.1304 50.3493 65.3215 50.3459 62.5142V62.4512C50.3442 60.999 50.3442 59.5486 50.3408 58.0981V58.0368C50.3391 56.4246 50.3374 54.8124 50.334 53.2002V53.1832C50.334 52.5346 50.3323 51.8877 50.3306 51.2391V51.1693C50.3306 50.742 50.3493 50.4849 50.9661 50.4866C57.0029 50.5053 63.0398 50.5087 69.0749 50.5104H69.1259C72.1248 50.5104 75.1236 50.5104 78.1225 50.5121C78.2279 50.5121 78.3332 50.5309 78.6289 50.5564C69.2482 60.0457 59.8999 69.3545 50.3527 78.7586ZM50.3595 18.3637C50.7367 18.4777 50.9355 18.7552 51.1632 18.9782C54.2572 22.0154 57.3461 25.0593 60.4385 28.0981C60.639 28.2956 60.8564 28.4743 61.0654 28.6616C61.1657 28.7603 61.2659 28.8574 61.3662 28.9544C61.7281 29.4107 62.1342 29.8244 62.6014 30.1733C62.6575 30.3232 62.7594 30.427 62.9106 30.4798C62.9871 30.6517 63.1094 30.776 63.2827 30.8475C64.6692 32.2571 66.042 33.6786 67.4421 35.0746C70.4648 38.0845 73.501 41.0824 76.5305 44.0838C76.5968 44.254 76.714 44.3749 76.8839 44.4413C76.94 44.6013 77.047 44.7103 77.2067 44.7665C77.273 44.9384 77.3902 45.0576 77.5618 45.124C77.6196 45.2823 77.7267 45.3896 77.8847 45.4474C78.0716 45.6841 78.2585 45.919 78.442 46.1505C78.2619 46.377 78.0478 46.2799 77.8677 46.2799C69.007 46.2816 60.1445 46.2697 51.2838 46.2884C50.5838 46.2901 50.3289 46.1914 50.3323 45.3878C50.3459 40.8901 50.3476 36.3906 50.3442 31.8928V31.8451C50.3561 31.2271 50.3697 30.616 50.4003 29.998C50.4275 29.4209 50.3833 28.8369 50.3425 28.2513V28.2053C50.3391 25.0814 50.334 21.9592 50.3323 18.8352C50.3323 18.699 50.3476 18.5612 50.3595 18.3637ZM46.3055 18.6786C46.4108 18.8744 46.4482 19.0991 46.438 19.3681C46.4329 19.4992 46.4244 19.6762 46.4669 19.8124V21.7038C46.3395 21.9115 46.4363 22.2094 46.4363 22.4342C46.4176 30.1495 46.421 37.8649 46.421 45.5802C46.421 45.7062 46.4278 45.8305 46.4431 45.9496C46.3904 46.1676 46.2375 46.2969 45.7975 46.2952C36.9418 46.268 28.0862 46.2765 19.2289 46.2765H18.5849C27.8347 36.9694 36.952 27.8427 46.3055 18.6786ZM46.4703 78.1458C46.4703 78.2207 46.4448 78.2939 46.4057 78.5203C36.986 69.2779 27.7634 59.9929 18.4252 50.5036H23.3458C30.7877 50.5036 38.2314 50.507 45.6751 50.4985C46.1747 50.4985 46.4907 50.4781 46.489 51.1778C46.4618 60.1665 46.472 69.1553 46.4703 78.1458Z" fill="white"/>
<path d="M35.0338 77.4188C33.1953 77.4257 31.3552 77.4376 29.5168 77.3967C23.9132 77.269 19.8898 73.1951 19.8202 67.5891C19.7981 65.7471 19.8134 63.905 19.8066 62.0613C19.8066 61.7855 19.8609 61.4927 19.6265 61.2629C18.5424 60.204 17.4635 59.1434 16.2555 57.9585C16.405 61.5455 16.1705 64.9469 16.3982 68.3467C16.8722 75.3964 22.1649 80.6126 29.2059 80.8322C32.4002 80.9309 35.5996 80.8611 38.7972 80.8645C38.923 80.8645 39.0844 80.9122 39.1659 80.7045C38.1499 79.7426 37.1185 78.7808 36.1059 77.7985C35.7949 77.4954 35.4517 77.4171 35.0338 77.4188Z" fill="white"/>
<path d="M62.0662 19.5945C63.8502 19.5741 65.6326 19.5656 67.4149 19.6013C72.5088 19.7001 76.7259 23.5271 77.2798 28.6054C77.5007 30.6364 77.3206 32.6861 77.3512 34.7256C77.3546 35.0048 77.2577 35.3129 77.4497 35.553C78.4556 36.7957 79.6279 37.8717 80.8326 38.9578C80.7884 35.2108 81.1707 31.4978 80.6117 27.8155C79.7095 21.8604 75.0931 17.1124 69.4113 16.3616C65.619 15.8594 61.7977 16.2867 57.9901 16.1267C58.9671 17.1635 59.8948 18.1202 60.7885 19.1059C61.1487 19.5026 61.5548 19.6013 62.0662 19.5945Z" fill="white"/>
<path d="M19.3631 35.8475C19.7046 35.4951 19.8117 35.1121 19.8032 34.6286C19.7743 33.013 19.7726 31.3974 19.7845 29.7818C19.8304 23.9868 24.0492 19.7069 29.838 19.5996C31.5914 19.569 33.3449 19.6047 35.0983 19.603C35.3498 19.603 35.6998 19.6643 35.8374 19.5298C36.9418 18.4318 38.0072 17.2963 39.0606 16.1931C35.7253 16.1931 32.356 16.0501 29.002 16.2237C22.362 16.5693 17.1186 21.697 16.4288 28.3296C16.0652 31.8349 16.3642 35.3521 16.4135 38.968C17.3956 37.9262 18.3674 36.8758 19.3631 35.8475Z" fill="white"/>
<path d="M80.8122 63.7263C80.8411 61.8468 80.819 59.9674 80.819 57.8751C79.7418 58.9868 78.7291 59.8669 77.8796 60.9122C77.3885 61.2084 77.2713 61.6545 77.2696 62.2094C77.2662 64.506 77.4871 66.8196 77.1761 69.0957C76.5339 73.7995 72.7211 77.1907 67.9348 77.3882C65.9282 77.4716 63.9165 77.4052 61.9065 77.4086C61.6006 77.4103 61.2931 77.3559 61.0365 77.6231C60.0086 78.6905 58.9671 79.746 57.8338 80.9054C61.6771 80.8101 65.4049 81.0518 69.1276 80.742C69.6322 80.7011 70.1368 80.5956 70.6313 80.4832C76.1856 79.2149 80.5777 74.0089 80.644 68.6242C80.6763 68.5458 80.7102 68.4709 80.7102 68.3824V68.2394C80.9396 66.7413 80.7901 65.2295 80.8122 63.7263Z" fill="white"/>
</svg>
